 <svg version="1.1" id="Capa_1" xmlns="http://www.w3.org/2000/svg" xmlns:xlink="http://www.w3.org/1999/xlink" x="0px" y="0px"
     xml:space="preserve">
    <symbol width="80" height="80" x="108"  id="user" viewBox="0 0 512 512">
		<path class="user"  d="M437.02,330.98c-27.883-27.882-61.071-48.523-97.281-61.018C378.521,243.251,404,198.548,404,148
			C404,66.393,337.607,0,256,0S108,66.393,108,148c0,50.548,25.479,95.251,64.262,121.962
			c-36.21,12.495-69.398,33.136-97.281,61.018C26.629,379.333,0,443.62,0,512h40c0-119.103,96.897-216,216-216s216,96.897,216,216
			h40C512,443.62,485.371,379.333,437.02,330.98z M256,256c-59.551,0-108-48.448-108-108S196.449,40,256,40
			c59.551,0,108,48.448,108,108S315.551,256,256,256z"/>
	</symbol>    
    <symbol fill="currentColor" id="lock" viewBox="0 0 58 58">
        <path d="M29,30c-2.206,0-4,1.794-4,4v6c0,2.206,1.794,4,4,4s4-1.794,4-4v-6C33,31.794,31.206,30,29,30z M31,40c0,1.103-0.897,2-2,2
        s-2-0.897-2-2v-6c0-1.103,0.897-2,2-2s2,0.897,2,2V40z"/>
        <path d="M40,21.314V10.22C40,4.585,35.065,0,29,0S18,4.585,18,10.22v11.094C12.584,24.896,9,31.034,9,38c0,11.028,8.972,20,20,20
        s20-8.972,20-20C49,31.034,45.416,24.896,40,21.314z M20,20.157V10.22C20,5.688,24.037,2,29,2s9,3.688,9,8.22v9.938
        c-0.188-0.095-0.38-0.179-0.57-0.268c-0.393-0.184-0.792-0.356-1.198-0.515c-0.261-0.102-0.523-0.198-0.787-0.289
        c-0.26-0.089-0.518-0.178-0.782-0.256c-0.437-0.13-0.879-0.241-1.324-0.341c-0.193-0.043-0.387-0.084-0.582-0.122
        c-0.523-0.101-1.049-0.183-1.579-0.242c-0.12-0.013-0.24-0.021-0.36-0.032C30.213,18.036,29.608,18,29,18s-1.213,0.036-1.816,0.092
        c-0.12,0.011-0.241,0.019-0.36,0.032c-0.53,0.059-1.056,0.141-1.579,0.242c-0.195,0.037-0.389,0.079-0.582,0.122
        c-0.445,0.1-0.887,0.211-1.324,0.341c-0.264,0.078-0.523,0.168-0.782,0.256c-0.264,0.091-0.527,0.187-0.787,0.289
        c-0.407,0.158-0.805,0.331-1.198,0.515C20.38,19.978,20.188,20.062,20,20.157z M29,56c-9.925,0-18-8.075-18-18
        c0-6.537,3.515-12.255,8.743-15.408c0.92-0.554,1.881-1.021,2.873-1.401c0.176-0.067,0.353-0.133,0.531-0.195
        c0.273-0.095,0.547-0.186,0.824-0.268c0.34-0.099,0.685-0.187,1.033-0.266c0.254-0.058,0.509-0.109,0.765-0.156
        c0.369-0.067,0.741-0.127,1.118-0.171c0.17-0.021,0.341-0.039,0.512-0.054C27.928,20.034,28.46,20,29,20s1.072,0.034,1.601,0.081
        c0.171,0.016,0.341,0.034,0.512,0.054c0.377,0.044,0.749,0.104,1.118,0.171c0.256,0.047,0.511,0.098,0.765,0.156
        c0.348,0.079,0.693,0.167,1.033,0.266c0.277,0.081,0.551,0.173,0.824,0.268c0.179,0.062,0.355,0.128,0.531,0.195
        c0.992,0.38,1.953,0.847,2.873,1.401C43.485,25.745,47,31.463,47,38C47,47.925,38.925,56,29,56z"/>
    </symbol>
    <symbol fill="currentColor" id="username" viewBox="0 0 58 58">
	    <path d="M55.517,46.55l-9.773-4.233c-0.23-0.115-0.485-0.396-0.704-0.771l6.525-0.005c0.114,0.011,2.804,0.257,4.961-0.67
            c0.817-0.352,1.425-1.047,1.669-1.907c0.246-0.868,0.09-1.787-0.426-2.523c-1.865-2.654-6.218-9.589-6.354-16.623
            c-0.003-0.121-0.397-12.083-12.21-12.18c-1.739,0.014-3.347,0.309-4.81,0.853c-0.319-0.813-0.789-1.661-1.488-2.459
            C30.854,3.688,27.521,2.5,23,2.5s-7.854,1.188-9.908,3.53c-2.368,2.701-2.148,5.976-2.092,6.525v5.319c-0.64,0.729-1,1.662-1,2.625
            v4c0,1.217,0.553,2.352,1.497,3.109c0.916,3.627,2.833,6.36,3.503,7.237v3.309c0,0.968-0.528,1.856-1.377,2.32l-8.921,4.866
            C1.801,46.924,0,49.958,0,53.262V57.5h44h2h14v-3.697C60,50.711,58.282,47.933,55.517,46.55z M44,55.5H2v-2.238
            c0-2.571,1.402-4.934,3.659-6.164l8.921-4.866C16.073,41.417,17,39.854,17,38.155v-4.019l-0.233-0.278
            c-0.024-0.029-2.475-2.994-3.41-7.065l-0.091-0.396l-0.341-0.22C12.346,25.803,12,25.176,12,24.5v-4c0-0.561,0.238-1.084,0.67-1.475
            L13,18.728V12.5l-0.009-0.131c-0.003-0.027-0.343-2.799,1.605-5.021C16.253,5.458,19.081,4.5,23,4.5
            c3.905,0,6.727,0.951,8.386,2.828c0.825,0.932,1.24,1.973,1.447,2.867c0.016,0.07,0.031,0.139,0.045,0.208
            c0.014,0.071,0.029,0.142,0.04,0.21c0.013,0.078,0.024,0.152,0.035,0.226c0.008,0.053,0.016,0.107,0.022,0.158
            c0.015,0.124,0.027,0.244,0.035,0.355c0.001,0.009,0.001,0.017,0.001,0.026c0.007,0.108,0.012,0.21,0.015,0.303
            c0,0.018,0,0.033,0.001,0.051c0.002,0.083,0.002,0.162,0.001,0.231c0,0.01,0,0.02,0,0.03c-0.004,0.235-0.02,0.375-0.02,0.378
            L33,18.728l0.33,0.298C33.762,19.416,34,19.939,34,20.5v4c0,0.873-0.572,1.637-1.422,1.899l-0.498,0.153l-0.16,0.495
            c-0.669,2.081-1.622,4.003-2.834,5.713c-0.297,0.421-0.586,0.794-0.837,1.079L28,34.123v4.125c0,0.253,0.025,0.501,0.064,0.745
            c0.008,0.052,0.022,0.102,0.032,0.154c0.039,0.201,0.091,0.398,0.155,0.59c0.015,0.045,0.031,0.088,0.048,0.133
            c0.078,0.209,0.169,0.411,0.275,0.605c0.012,0.022,0.023,0.045,0.035,0.067c0.145,0.256,0.312,0.499,0.504,0.723l0.228,0.281h0.039
            c0.343,0.338,0.737,0.632,1.185,0.856l9.553,4.776C42.513,48.374,44,50.78,44,53.457V55.5z M58,55.5H46v-2.043
            c0-3.439-1.911-6.53-4.986-8.068l-6.858-3.43c0.169-0.386,0.191-0.828,0.043-1.254c-0.245-0.705-0.885-1.16-1.63-1.16h-2.217
            c-0.046-0.081-0.076-0.17-0.113-0.256c-0.05-0.115-0.109-0.228-0.142-0.349C30.036,38.718,30,38.486,30,38.248v-3.381
            c0.229-0.28,0.47-0.599,0.719-0.951c1.239-1.75,2.232-3.698,2.954-5.799C35.084,27.47,36,26.075,36,24.5v-4
            c0-0.963-0.36-1.896-1-2.625v-5.319c0.026-0.25,0.082-1.069-0.084-2.139c1.288-0.506,2.731-0.767,4.29-0.78
            c9.841,0.081,10.2,9.811,10.21,10.221c0.147,7.583,4.746,14.927,6.717,17.732c0.169,0.24,0.22,0.542,0.139,0.827
            c-0.046,0.164-0.178,0.462-0.535,0.615c-1.68,0.723-3.959,0.518-4.076,0.513h-6.883c-0.643,0-1.229,0.327-1.568,0.874
            c-0.338,0.545-0.37,1.211-0.086,1.783c0.313,0.631,0.866,1.474,1.775,1.927l9.747,4.222C56.715,49.396,58,51.482,58,53.803V55.5z"/>
    </symbol>
</svg>