<?xml version="1.0" encoding="iso-8859-1"?>
<!DOCTYPE svg PUBLIC "-//W3C//DTD SVG 1.1//EN" "http://www.w3.org/Graphics/SVG/1.1/DTD/svg11.dtd">
<svg version="1.1" id="Capa_1" xmlns="http://www.w3.org/2000/svg" xmlns:xlink="http://www.w3.org/1999/xlink" x="0px" y="0px"
    xml:space="preserve">
    <symbol id="eye" fill="currentColor" viewBox="0 0 511.992 511.992">
        <path d="M510.096,249.937c-4.032-5.867-100.928-143.275-254.101-143.275C124.56,106.662,7.44,243.281,2.512,249.105
			c-3.349,3.968-3.349,9.792,0,13.781C7.44,268.71,124.56,405.329,255.995,405.329S504.549,268.71,509.477,262.886
			C512.571,259.217,512.848,253.905,510.096,249.937z M255.995,383.996c-105.365,0-205.547-100.48-230.997-128
			c25.408-27.541,125.483-128,230.997-128c123.285,0,210.304,100.331,231.552,127.424
			C463.013,282.065,362.256,383.996,255.995,383.996z"/>
        <path d="M255.995,170.662c-47.061,0-85.333,38.272-85.333,85.333s38.272,85.333,85.333,85.333s85.333-38.272,85.333-85.333
			S303.056,170.662,255.995,170.662z M255.995,319.996c-35.285,0-64-28.715-64-64s28.715-64,64-64s64,28.715,64,64
			S291.28,319.996,255.995,319.996z"/>
    </symbol>
    <symbol id="edit" fill="currentColor" viewBox="0 -1 401.52289 401">
    <path d="m370.589844 250.972656c-5.523438 0-10 4.476563-10 10v88.789063c-.019532 16.5625-13.4375 29.984375-30 30h-280.589844c-16.5625-.015625-29.980469-13.4375-30-30v-260.589844c.019531-16.558594 13.4375-29.980469 30-30h88.789062c5.523438 0 10-4.476563 10-10 0-5.519531-4.476562-10-10-10h-88.789062c-27.601562.03125-49.96875 22.398437-50 50v260.59375c.03125 27.601563 22.398438 49.96875 50 50h280.589844c27.601562-.03125 49.96875-22.398437 50-50v-88.792969c0-5.523437-4.476563-10-10-10zm0 0"/><path d="m376.628906 13.441406c-17.574218-17.574218-46.066406-17.574218-63.640625 0l-178.40625 178.40625c-1.222656 1.222656-2.105469 2.738282-2.566406 4.402344l-23.460937 84.699219c-.964844 3.472656.015624 7.191406 2.5625 9.742187 2.550781 2.546875 6.269531 3.527344 9.742187 2.566406l84.699219-23.464843c1.664062-.460938 3.179687-1.34375 4.402344-2.566407l178.402343-178.410156c17.546875-17.585937 17.546875-46.054687 0-63.640625zm-220.257812 184.90625 146.011718-146.015625 47.089844 47.089844-146.015625 146.015625zm-9.40625 18.875 37.621094 37.625-52.039063 14.417969zm227.257812-142.546875-10.605468 10.605469-47.09375-47.09375 10.609374-10.605469c9.761719-9.761719 25.589844-9.761719 35.351563 0l11.738281 11.734375c9.746094 9.773438 9.746094 25.589844 0 35.359375zm0 0"/>
  </symbol>
    <symbol id="fbs" fill="currentColor" viewBox="0 0 512 512">
        <path d="m437 0h-362c-41.351562 0-75 33.648438-75 75v362c0 41.351562 33.648438 75 75 75h151v-181h-60v-90h60v-61c0-49.628906 40.371094-90 90-90h91v90h-91v61h91l-15 90h-76v181h121c41.351562 0 75-33.648438 75-75v-362c0-41.351562-33.648438-75-75-75zm0 0"/>
    </symbol>
    <symbol id="mail" fill="currentColor" viewBox="0 0 512 512">
        <path d="M226.735,1.636C111.259,14.518,17.472,106.202,2.285,221.396c-21.518,163.24,111.938,302.116,273.589,289.849
			c59.464-4.513,115.124-31.086,158.736-71.759l3.746-3.492c4.309-4.018,4.544-10.768,0.526-15.076l-14.555-15.607
			c-4.018-4.309-10.767-4.544-15.076-0.526l-7.803,7.277c-48.51,45.232-115.104,65.582-182.284,54.141
			c-95.215-16.216-168.411-97.052-175.846-193.352C33.487,145.508,136.207,39.093,262.324,42.758
			c116.288,3.381,207.009,102.616,207.009,218.953v15.622c0,24.934-21.486,44.932-46.921,42.46
			C400.246,317.637,384,297.714,384,275.442v-94.108c0-5.892-4.776-10.667-10.667-10.667H352c-4.283,0-7.921,2.56-9.618,6.203
			c-21.465-23.413-52.19-38.203-86.382-38.203c-64.698,0-117.333,52.635-117.333,117.333S191.302,373.334,256,373.334
			c40.755,0,76.691-20.909,97.732-52.54c15.842,26.475,45.276,43.922,78.78,41.677c45.303-3.035,79.488-42.746,79.488-88.15V256
			C512,105.202,380.931-15.566,226.735,1.636z M256,330.667c-41.167,0-74.667-33.5-74.667-74.667
			c0-41.167,33.5-74.667,74.667-74.667c41.167,0,74.667,33.5,74.667,74.667C330.667,297.167,297.167,330.667,256,330.667z"/>
    </symbol>
</svg>
