<svg version="1.1" id="Capa_1" xmlns="http://www.w3.org/2000/svg" xmlns:xlink="http://www.w3.org/1999/xlink" x="0px" y="0px"
     xml:space="preserve">
     <symbol fill="currentColor" id="register" viewBox="0 0 24 24">
        <path d="m11.894 24c-.131 0-.259-.052-.354-.146-.118-.118-.17-.288-.137-.451l.707-3.535c.02-.098.066-.187.137-.256l7.778-7.778c.584-.584 1.537-.584 2.121 0l1.414 1.414c.585.585.585 1.536 0 2.121l-7.778 7.778c-.069.07-.158.117-.256.137l-3.535.707c-.032.006-.065.009-.097.009zm1.168-3.789-.53 2.651 2.651-.53 7.671-7.671c.195-.195.195-.512 0-.707l-1.414-1.414c-.195-.195-.512-.195-.707 0zm2.367 2.582h.01z"/>
        <path d="m9.5 21h-7c-1.379 0-2.5-1.121-2.5-2.5v-13c0-1.379 1.121-2.5 2.5-2.5h2c.276 0 .5.224.5.5s-.224.5-.5.5h-2c-.827 0-1.5.673-1.5 1.5v13c0 .827.673 1.5 1.5 1.5h7c.276 0 .5.224.5.5s-.224.5-.5.5z"/>
        <path d="m16.5 12c-.276 0-.5-.224-.5-.5v-6c0-.827-.673-1.5-1.5-1.5h-2c-.276 0-.5-.224-.5-.5s.224-.5.5-.5h2c1.379 0 2.5 1.121 2.5 2.5v6c0 .276-.224.5-.5.5z"/>
        <path d="m11.5 6h-6c-.827 0-1.5-.673-1.5-1.5v-2c0-.276.224-.5.5-.5h1.55c.232-1.14 1.243-2 2.45-2s2.218.86 2.45 2h1.55c.276 0 .5.224.5.5v2c0 .827-.673 1.5-1.5 1.5zm-6.5-3v1.5c0 .275.225.5.5.5h6c.275 0 .5-.225.5-.5v-1.5h-1.5c-.276 0-.5-.224-.5-.5 0-.827-.673-1.5-1.5-1.5s-1.5.673-1.5 1.5c0 .276-.224.5-.5.5z"/>
        <path d="m13.5 9h-10c-.276 0-.5-.224-.5-.5s.224-.5.5-.5h10c.276 0 .5.224.5.5s-.224.5-.5.5z"/>
        <path d="m13.5 12h-10c-.276 0-.5-.224-.5-.5s.224-.5.5-.5h10c.276 0 .5.224.5.5s-.224.5-.5.5z"/>
        <path d="m13.5 15h-10c-.276 0-.5-.224-.5-.5s.224-.5.5-.5h10c.276 0 .5.224.5.5s-.224.5-.5.5z"/>
     </symbol>  
     <symbol fill="currentColor" id="users" viewBox="0 0 505.4 505.4">
        <path d="M437.1,233.45c14.8-10.4,24.6-27.7,24.6-47.2c0-31.9-25.8-57.7-57.7-57.7c-31.9,0-57.7,25.8-57.7,57.7
			c0,19.5,9.7,36.8,24.6,47.2c-12.7,4.4-24.3,11.2-34.1,20c-13.5-11.5-29.4-20.3-46.8-25.5c21.1-12.8,35.3-36.1,35.3-62.6
			c0-40.4-32.7-73.1-73.1-73.1c-40.4,0-73.1,32.8-73.1,73.1c0,26.5,14.1,49.8,35.3,62.6c-17.2,5.2-32.9,13.9-46.3,25.2
			c-9.8-8.6-21.2-15.3-33.7-19.6c14.8-10.4,24.6-27.7,24.6-47.2c0-31.9-25.8-57.7-57.7-57.7s-57.7,25.8-57.7,57.7
			c0,19.5,9.7,36.8,24.6,47.2C28.5,247.25,0,284.95,0,329.25v6.6c0,0.2,0.2,0.4,0.4,0.4h122.3c-0.7,5.5-1.1,11.2-1.1,16.9v6.8
			c0,29.4,23.8,53.2,53.2,53.2h155c29.4,0,53.2-23.8,53.2-53.2v-6.8c0-5.7-0.4-11.4-1.1-16.9H505c0.2,0,0.4-0.2,0.4-0.4v-6.6
			C505.2,284.85,476.8,247.15,437.1,233.45z M362.3,186.15c0-23,18.7-41.7,41.7-41.7s41.7,18.7,41.7,41.7
			c0,22.7-18.3,41.2-40.9,41.7c-0.3,0-0.5,0-0.8,0s-0.5,0-0.8,0C380.5,227.45,362.3,208.95,362.3,186.15z M194.9,165.35
			c0-31.5,25.6-57.1,57.1-57.1s57.1,25.6,57.1,57.1c0,30.4-23.9,55.3-53.8,57c-1.1,0-2.2,0-3.3,0c-1.1,0-2.2,0-3.3,0
			C218.8,220.65,194.9,195.75,194.9,165.35z M59.3,186.15c0-23,18.7-41.7,41.7-41.7s41.7,18.7,41.7,41.7c0,22.7-18.3,41.2-40.9,41.7
			c-0.3,0-0.5,0-0.8,0s-0.5,0-0.8,0C77.6,227.45,59.3,208.95,59.3,186.15z M125.5,320.15H16.2c4.5-42.6,40.5-76,84.2-76.3
			c0.2,0,0.4,0,0.6,0s0.4,0,0.6,0c20.8,0.1,39.8,7.8,54.5,20.3C141.7,279.75,131,298.95,125.5,320.15z M366.8,359.95
			c0,20.5-16.7,37.2-37.2,37.2h-155c-20.5,0-37.2-16.7-37.2-37.2v-6.8c0-62.1,49.6-112.9,111.3-114.7c1.1,0.1,2.3,0.1,3.4,0.1
			s2.3,0,3.4-0.1c61.7,1.8,111.3,52.6,111.3,114.7V359.95z M378.7,320.15c-5.5-21.1-16-40-30.3-55.6c14.8-12.8,34-20.5,55-20.7
			c0.2,0,0.4,0,0.6,0s0.4,0,0.6,0c43.7,0.3,79.7,33.7,84.2,76.3H378.7z"/>
     </symbol>  
     <symbol fill="currentColor" id="users-setting" viewBox="0 0 512.835 512.835">
        <path d="M96.003,107.084c29.419,0,53.333-23.936,53.333-53.333S125.422,0.418,96.003,0.418
				c-29.419,0-53.333,23.936-53.333,53.333S66.585,107.084,96.003,107.084z M96.003,21.751c17.643,0,32,14.357,32,32
				c0,17.643-14.357,32-32,32c-17.643,0-32-14.357-32-32C64.003,36.108,78.361,21.751,96.003,21.751z"/>
			<path d="M183.022,332.364c6.741-7.573,9.941-17.856,8.768-28.224l-14.144-123.904c-3.349-29.547-26.752-51.819-54.4-51.819
				H68.782c-27.648,0-51.051,22.293-54.4,51.819L0.238,304.14c-1.173,10.368,2.027,20.672,8.768,28.224
				c5.803,6.507,13.525,10.304,21.909,10.773L42.691,502.54c0.427,5.568,5.056,9.877,10.645,9.877h85.333
				c5.589,0,10.219-4.309,10.667-9.877l11.776-159.403C169.475,342.668,177.219,338.892,183.022,332.364z M167.086,318.156
				c-1.216,1.365-3.883,3.691-7.808,3.691h-8.107c-5.589,0-10.219,4.309-10.645,9.877l-11.776,159.36H63.257l-11.797-159.36
				c-0.427-5.568-5.056-9.877-10.645-9.877h-8.107c-3.904,0-6.571-2.325-7.808-3.691c-2.709-3.051-3.968-7.275-3.477-11.605
				l14.144-123.904c2.133-18.752,16.405-32.896,33.195-32.896h54.464c16.789,0,31.061,14.144,33.195,32.896l14.144,123.904
				C171.076,310.882,169.795,315.106,167.086,318.156z"/>
			<path d="M277.337,341.751c-18.475,0-36.288-6.144-51.52-17.771c-4.672-3.563-11.371-2.688-14.955,2.005
				c-3.584,4.693-2.667,11.392,2.005,14.955c18.965,14.485,41.259,22.144,64.469,22.144c58.816,0,106.688-47.872,106.688-106.688
				c0-58.816-47.851-106.667-106.667-106.667c-27.712,0-54.037,10.709-74.091,30.123c-4.245,4.096-4.352,10.859-0.256,15.083
				c4.139,4.245,10.859,4.352,15.083,0.256c16.064-15.552,37.099-24.107,59.243-24.107c47.061,0,85.333,38.272,85.333,85.333
				S324.398,341.751,277.337,341.751z"/>
			<path d="M510.852,224.183c-1.6-12.864-8.789-23.979-19.691-30.507c-10.453-6.272-22.976-7.36-34.56-2.901
				c-9.067,3.541-19.541-1.365-23.787-11.115c-4.992-11.413-11.115-22.336-18.197-32.448c-6.315-8.981-5.141-20.736,2.667-27.349
				c9.451-7.979,14.72-19.691,14.464-32.171c-0.256-12.651-6.101-24.341-16.043-32.064c-16.299-12.672-34.091-23.211-52.885-31.317
				c-11.52-4.971-24.341-4.395-35.264,1.6c-10.965,6.016-18.411,16.64-20.459,29.163c-1.664,10.176-10.859,17.088-21.419,15.893
				c-11.925-1.28-24.341-1.28-36.352,0c-10.603,1.088-19.733-5.696-21.397-15.915c-1.92-11.84-8.832-22.123-18.965-28.203
				c-10.197-6.101-22.507-7.381-33.792-3.499c-5.589,1.92-8.555,7.979-6.635,13.547c1.899,5.568,7.936,8.491,13.547,6.635
				c5.312-1.856,11.115-1.259,15.893,1.621c4.821,2.88,7.957,7.595,8.896,13.333c3.499,21.568,22.613,36.096,44.715,33.685
				c10.496-1.088,21.44-1.088,31.808,0c22.016,2.475,41.323-12.48,44.736-33.685c0.981-5.973,4.501-11.029,9.664-13.867
				c5.099-2.795,11.115-3.051,16.555-0.725c17.131,7.403,33.387,17.024,48.277,28.587c4.821,3.733,7.659,9.429,7.787,15.637
				c0.128,6.016-2.368,11.648-6.869,15.445c-16.341,13.781-19.093,37.824-6.379,55.893c6.272,8.96,11.691,18.624,16.107,28.736
				c8.811,20.224,31.211,30.059,51.221,22.4c5.312-2.005,10.88-1.536,15.701,1.365c5.227,3.136,8.683,8.555,9.472,14.869
				c1.216,9.472,1.813,19.157,1.813,28.8c0,9.643-0.597,19.328-1.813,28.821c-0.789,6.293-4.245,11.712-9.472,14.848
				c-4.821,2.901-10.453,3.435-15.936,1.28c-19.84-7.595-42.197,2.283-51.008,22.485c-4.416,10.112-9.835,19.797-16.107,28.736
				c-12.693,18.069-9.963,42.112,6.379,55.915c4.501,3.797,6.997,9.408,6.869,15.424c-0.128,6.187-2.944,11.883-7.787,15.637
				c-14.912,11.584-31.147,21.184-48.277,28.587c-5.44,2.325-11.477,2.048-16.555-0.725c-5.163-2.837-8.683-7.893-9.664-13.845
				c-3.435-21.248-23.189-36.181-44.715-33.707c-10.411,1.109-21.355,1.131-31.808,0c-22.144-2.368-41.237,12.117-44.736,33.685
				c-0.853,5.227-3.627,9.728-7.787,12.693c-4.139,2.944-9.173,4.075-14.08,3.2c-5.675-1.088-11.328,2.816-12.352,8.64
				c-1.024,5.803,2.859,11.328,8.64,12.352c2.347,0.405,4.693,0.619,7.019,0.619c8.235,0,16.256-2.539,23.147-7.36
				c8.875-6.293,14.72-15.765,16.491-26.667c1.664-10.197,10.752-17.109,21.419-15.915c11.968,1.28,24.363,1.28,36.352,0
				c10.603-1.173,19.733,5.696,21.397,15.915c2.048,12.523,9.493,23.147,20.459,29.141c10.923,5.995,23.765,6.571,35.264,1.6
				c18.773-8.107,36.565-18.645,52.885-31.317c9.941-7.723,15.787-19.413,16.043-32.064c0.235-12.48-5.035-24.192-14.464-32.171
				c-7.808-6.613-8.981-18.389-2.667-27.371c7.083-10.112,13.227-21.013,18.197-32.427c4.245-9.728,14.72-14.613,24.021-11.029
				c11.392,4.352,23.872,3.264,34.325-2.987c10.901-6.528,18.091-17.643,19.691-30.485c1.323-10.389,1.984-20.971,1.984-31.488
				C512.836,245.132,512.174,234.53,510.852,224.183z"/>
     </symbol>  
     <symbol fill="currentColor" id="download" viewBox="0 0 24 24">
        <path d="m21.5 20h-2c-.276 0-.5-.224-.5-.5s.224-.5.5-.5h2c.827 0 1.5-.673 1.5-1.5v-11c0-.827-.673-1.5-1.5-1.5h-11.5c-.133 0-.26-.053-.354-.146l-1.853-1.854h-5.293c-.827 0-1.5.673-1.5 1.5v13c0 .827.673 1.5 1.5 1.5h2c.276 0 .5.224.5.5s-.224.5-.5.5h-2c-1.379 0-2.5-1.122-2.5-2.5v-13c0-1.378 1.121-2.5 2.5-2.5h5.5c.133 0 .26.053.354.146l1.853 1.854h11.293c1.379 0 2.5 1.122 2.5 2.5v11c0 1.378-1.121 2.5-2.5 2.5z"/>
        <path d="m12 18.75c-.276 0-.5-.224-.5-.5v-7.75c0-.276.224-.5.5-.5s.5.224.5.5v7.75c0 .277-.224.5-.5.5z"/><path d="m12 19c-.128 0-.256-.049-.354-.146l-2.5-2.5c-.195-.195-.195-.512 0-.707s.512-.195.707 0l2.147 2.146 2.146-2.146c.195-.195.512-.195.707 0s.195.512 0 .707l-2.5 2.5c-.097.097-.225.146-.353.146z"/>
        <path d="m15.5 22h-7c-.827 0-1.5-.673-1.5-1.5v-2c0-.276.224-.5.5-.5s.5.224.5.5v2c0 .276.225.5.5.5h7c.275 0 .5-.224.5-.5v-2c0-.276.224-.5.5-.5s.5.224.5.5v2c0 .827-.673 1.5-1.5 1.5z"/>
     </symbol>   
</svg>