<svg   xmlns="http://www.w3.org/2000/svg">
  <symbol id="delete" fill="currentColor" viewBox="-40 0 427 427.00131">
    <path d="m232.398438 154.703125c-5.523438 0-10 4.476563-10 10v189c0 5.519531 4.476562 10 10 10 5.523437 0 10-4.480469 10-10v-189c0-5.523437-4.476563-10-10-10zm0 0"/><path d="m114.398438 154.703125c-5.523438 0-10 4.476563-10 10v189c0 5.519531 4.476562 10 10 10 5.523437 0 10-4.480469 10-10v-189c0-5.523437-4.476563-10-10-10zm0 0"/><path d="m28.398438 127.121094v246.378906c0 14.5625 5.339843 28.238281 14.667968 38.050781 9.285156 9.839844 22.207032 15.425781 35.730469 15.449219h189.203125c13.527344-.023438 26.449219-5.609375 35.730469-15.449219 9.328125-9.8125 14.667969-23.488281 14.667969-38.050781v-246.378906c18.542968-4.921875 30.558593-22.835938 28.078124-41.863282-2.484374-19.023437-18.691406-33.253906-37.878906-33.257812h-51.199218v-12.5c.058593-10.511719-4.097657-20.605469-11.539063-28.03125-7.441406-7.421875-17.550781-11.5546875-28.0625-11.46875h-88.796875c-10.511719-.0859375-20.621094 4.046875-28.0625 11.46875-7.441406 7.425781-11.597656 17.519531-11.539062 28.03125v12.5h-51.199219c-19.1875.003906-35.394531 14.234375-37.878907 33.257812-2.480468 19.027344 9.535157 36.941407 28.078126 41.863282zm239.601562 279.878906h-189.203125c-17.097656 0-30.398437-14.6875-30.398437-33.5v-245.5h250v245.5c0 18.8125-13.300782 33.5-30.398438 33.5zm-158.601562-367.5c-.066407-5.207031 1.980468-10.21875 5.675781-13.894531 3.691406-3.675781 8.714843-5.695313 13.925781-5.605469h88.796875c5.210937-.089844 10.234375 1.929688 13.925781 5.605469 3.695313 3.671875 5.742188 8.6875 5.675782 13.894531v12.5h-128zm-71.199219 32.5h270.398437c9.941406 0 18 8.058594 18 18s-8.058594 18-18 18h-270.398437c-9.941407 0-18-8.058594-18-18s8.058593-18 18-18zm0 0"/><path d="m173.398438 154.703125c-5.523438 0-10 4.476563-10 10v189c0 5.519531 4.476562 10 10 10 5.523437 0 10-4.480469 10-10v-189c0-5.523437-4.476563-10-10-10zm0 0"/>
  </symbol>
  <symbol id="edit" fill="currentColor" viewBox="0 -1 401.52289 401">
    <path d="m370.589844 250.972656c-5.523438 0-10 4.476563-10 10v88.789063c-.019532 16.5625-13.4375 29.984375-30 30h-280.589844c-16.5625-.015625-29.980469-13.4375-30-30v-260.589844c.019531-16.558594 13.4375-29.980469 30-30h88.789062c5.523438 0 10-4.476563 10-10 0-5.519531-4.476562-10-10-10h-88.789062c-27.601562.03125-49.96875 22.398437-50 50v260.59375c.03125 27.601563 22.398438 49.96875 50 50h280.589844c27.601562-.03125 49.96875-22.398437 50-50v-88.792969c0-5.523437-4.476563-10-10-10zm0 0"/><path d="m376.628906 13.441406c-17.574218-17.574218-46.066406-17.574218-63.640625 0l-178.40625 178.40625c-1.222656 1.222656-2.105469 2.738282-2.566406 4.402344l-23.460937 84.699219c-.964844 3.472656.015624 7.191406 2.5625 9.742187 2.550781 2.546875 6.269531 3.527344 9.742187 2.566406l84.699219-23.464843c1.664062-.460938 3.179687-1.34375 4.402344-2.566407l178.402343-178.410156c17.546875-17.585937 17.546875-46.054687 0-63.640625zm-220.257812 184.90625 146.011718-146.015625 47.089844 47.089844-146.015625 146.015625zm-9.40625 18.875 37.621094 37.625-52.039063 14.417969zm227.257812-142.546875-10.605468 10.605469-47.09375-47.09375 10.609374-10.605469c9.761719-9.761719 25.589844-9.761719 35.351563 0l11.738281 11.734375c9.746094 9.773438 9.746094 25.589844 0 35.359375zm0 0"/>
  </symbol>
  <symbol id="user-add" fill="currentColor" viewBox="0 0 512 512">
	<path d="M255.501,0.499c-81.448,0-147.711,66.264-147.711,147.711c0,50.449,25.429,95.065,64.137,121.724
		c-36.139,12.471-69.263,33.071-97.091,60.899C26.577,379.093,0,443.254,0,511.501h39.922
		c0-118.871,96.708-215.579,215.579-215.579c81.448,0,147.711-66.264,147.711-147.712S336.949,0.499,255.501,0.499z M255.501,256
		c-59.435,0-107.789-48.354-107.789-107.789S196.066,40.421,255.501,40.421S363.29,88.775,363.29,148.211S314.936,256,255.501,256z
		"/>
	<polygon points="428.164,387.743 428.164,303.906 388.242,303.906 388.242,387.743 304.405,387.743 304.405,427.665 
			388.242,427.665 388.242,511.501 428.164,511.501 428.164,427.665 512,427.665 512,387.743"/>
  </symbol>
  <symbol id="plus" fill="currentColor" viewBox="0 0 512 512">
	<path d="M256,0C114.51,0,0,114.497,0,256c0,141.49,114.497,256,256,256c141.49,0,256-114.497,256-256C512,114.51,397.503,0,256,0z
			M256,477.867c-122.337,0-221.867-99.529-221.867-221.867S133.663,34.133,256,34.133S477.867,133.663,477.867,256
		S378.337,477.867,256,477.867z"/>
	<path d="M371.345,238.933h-98.278v-98.278c0-9.425-7.641-17.067-17.067-17.067s-17.067,7.641-17.067,17.067v98.278h-98.278
	c-9.425,0-17.067,7.641-17.067,17.067s7.641,17.067,17.067,17.067h98.278v98.278c0,9.425,7.641,17.067,17.067,17.067
	s17.067-7.641,17.067-17.067v-98.278h98.278c9.425,0,17.067-7.641,17.067-17.067S380.77,238.933,371.345,238.933z"/>

  </symbol>
  <symbol id="setting" fill="currentColor" viewBox="0 0 217.794 217.794">
    <path d="M113.595,133.642l-5.932-13.169c5.655-4.151,10.512-9.315,14.307-15.209l13.507,5.118c2.583,0.979,5.469-0.322,6.447-2.904
	l4.964-13.103c0.47-1.24,0.428-2.616-0.117-3.825c-0.545-1.209-1.547-2.152-2.788-2.622l-13.507-5.118
	c1.064-6.93,0.848-14.014-0.637-20.871l13.169-5.932c1.209-0.545,2.152-1.547,2.622-2.788c0.47-1.24,0.428-2.616-0.117-3.825
	l-5.755-12.775c-1.134-2.518-4.096-3.638-6.612-2.505l-13.169,5.932c-4.151-5.655-9.315-10.512-15.209-14.307l5.118-13.507
	c0.978-2.582-0.322-5.469-2.904-6.447L93.88,0.82c-1.239-0.469-2.615-0.428-3.825,0.117c-1.209,0.545-2.152,1.547-2.622,2.788
	l-5.117,13.506c-6.937-1.07-14.033-0.849-20.872,0.636L55.513,4.699c-0.545-1.209-1.547-2.152-2.788-2.622
	c-1.239-0.469-2.616-0.428-3.825,0.117L36.124,7.949c-2.518,1.134-3.639,4.094-2.505,6.612l5.932,13.169
	c-5.655,4.151-10.512,9.315-14.307,15.209l-13.507-5.118c-1.239-0.469-2.615-0.427-3.825,0.117
	c-1.209,0.545-2.152,1.547-2.622,2.788L0.326,53.828c-0.978,2.582,0.322,5.469,2.904,6.447l13.507,5.118
	c-1.064,6.929-0.848,14.015,0.637,20.871L4.204,92.196c-1.209,0.545-2.152,1.547-2.622,2.788c-0.47,1.24-0.428,2.616,0.117,3.825
	l5.755,12.775c0.544,1.209,1.547,2.152,2.787,2.622c1.241,0.47,2.616,0.429,3.825-0.117l13.169-5.932
	c4.151,5.656,9.314,10.512,15.209,14.307l-5.118,13.507c-0.978,2.582,0.322,5.469,2.904,6.447l13.103,4.964
	c0.571,0.216,1.172,0.324,1.771,0.324c0.701,0,1.402-0.147,2.054-0.441c1.209-0.545,2.152-1.547,2.622-2.788l5.117-13.506
	c6.937,1.069,14.034,0.849,20.872-0.636l5.931,13.168c0.545,1.209,1.547,2.152,2.788,2.622c1.24,0.47,2.617,0.429,3.825-0.117
	l12.775-5.754C113.607,139.12,114.729,136.16,113.595,133.642z M105.309,86.113c-4.963,13.1-17.706,21.901-31.709,21.901
	c-4.096,0-8.135-0.744-12.005-2.21c-8.468-3.208-15.18-9.522-18.899-17.779c-3.719-8.256-4-17.467-0.792-25.935
	c4.963-13.1,17.706-21.901,31.709-21.901c4.096,0,8.135,0.744,12.005,2.21c8.468,3.208,15.18,9.522,18.899,17.778
	C108.237,68.434,108.518,77.645,105.309,86.113z M216.478,154.389c-0.896-0.977-2.145-1.558-3.469-1.615l-9.418-0.404
	c-0.867-4.445-2.433-8.736-4.633-12.697l6.945-6.374c2.035-1.867,2.17-5.03,0.303-7.064l-6.896-7.514
	c-0.896-0.977-2.145-1.558-3.47-1.615c-1.322-0.049-2.618,0.416-3.595,1.312l-6.944,6.374c-3.759-2.531-7.9-4.458-12.254-5.702
	l0.404-9.418c0.118-2.759-2.023-5.091-4.782-5.209l-10.189-0.437c-2.745-0.104-5.091,2.023-5.209,4.781l-0.404,9.418
	c-4.444,0.867-8.735,2.433-12.697,4.632l-6.374-6.945c-0.896-0.977-2.145-1.558-3.469-1.615c-1.324-0.054-2.618,0.416-3.595,1.312
	l-7.514,6.896c-2.035,1.867-2.17,5.03-0.303,7.064l6.374,6.945c-2.531,3.759-4.458,7.899-5.702,12.254l-9.417-0.404
	c-2.747-0.111-5.092,2.022-5.21,4.781l-0.437,10.189c-0.057,1.325,0.415,2.618,1.312,3.595c0.896,0.977,2.145,1.558,3.47,1.615
	l9.417,0.403c0.867,4.445,2.433,8.736,4.632,12.698l-6.944,6.374c-0.977,0.896-1.558,2.145-1.615,3.469
	c-0.057,1.325,0.415,2.618,1.312,3.595l6.896,7.514c0.896,0.977,2.145,1.558,3.47,1.615c1.319,0.053,2.618-0.416,3.595-1.312
	l6.944-6.374c3.759,2.531,7.9,4.458,12.254,5.702l-0.404,9.418c-0.118,2.759,2.022,5.091,4.781,5.209l10.189,0.437
	c0.072,0.003,0.143,0.004,0.214,0.004c1.25,0,2.457-0.468,3.381-1.316c0.977-0.896,1.558-2.145,1.615-3.469l0.404-9.418
	c4.444-0.867,8.735-2.433,12.697-4.632l6.374,6.945c0.896,0.977,2.145,1.558,3.469,1.615c1.33,0.058,2.619-0.416,3.595-1.312
	l7.514-6.896c2.035-1.867,2.17-5.03,0.303-7.064l-6.374-6.945c2.531-3.759,4.458-7.899,5.702-12.254l9.417,0.404
	c2.756,0.106,5.091-2.022,5.21-4.781l0.437-10.189C217.847,156.659,217.375,155.366,216.478,154.389z M160.157,183.953
	c-12.844-0.55-22.846-11.448-22.295-24.292c0.536-12.514,10.759-22.317,23.273-22.317c0.338,0,0.678,0.007,1.019,0.022
	c12.844,0.551,22.846,11.448,22.295,24.292C183.898,174.511,173.106,184.497,160.157,183.953z"/>
  </symbol>
  <symbol fill="currentColor" id="print" viewBox="0 0 24 24">
	<path d="m21.5 18h-3c-.276 0-.5-.224-.5-.5s.224-.5.5-.5h3c.827 0 1.5-.673 1.5-1.5v-7c0-.827-.673-1.5-1.5-1.5h-19c-.827 0-1.5.673-1.5 1.5v7c0 .827.673 1.5 1.5 1.5h3c.276 0 .5.224.5.5s-.224.5-.5.5h-3c-1.379 0-2.5-1.122-2.5-2.5v-7c0-1.378 1.121-2.5 2.5-2.5h19c1.379 0 2.5 1.122 2.5 2.5v7c0 1.378-1.121 2.5-2.5 2.5z"/>
	<path d="m14.5 21h-6c-.276 0-.5-.224-.5-.5s.224-.5.5-.5h6c.276 0 .5.224.5.5s-.224.5-.5.5z"/>
	<path d="m14.5 19h-6c-.276 0-.5-.224-.5-.5s.224-.5.5-.5h6c.276 0 .5.224.5.5s-.224.5-.5.5z"/>
	<path d="m10.5 17h-2c-.276 0-.5-.224-.5-.5s.224-.5.5-.5h2c.276 0 .5.224.5.5s-.224.5-.5.5z"/>
	<path d="m18.5 7c-.276 0-.5-.224-.5-.5v-4c0-.827-.673-1.5-1.5-1.5h-9c-.827 0-1.5.673-1.5 1.5v4c0 .276-.224.5-.5.5s-.5-.224-.5-.5v-4c0-1.378 1.121-2.5 2.5-2.5h9c1.379 0 2.5 1.122 2.5 2.5v4c0 .276-.224.5-.5.5z"/>
	<path d="m16.5 24h-9c-1.379 0-2.5-1.122-2.5-2.5v-8c0-.276.224-.5.5-.5h13c.276 0 .5.224.5.5v8c0 1.378-1.121 2.5-2.5 2.5zm-10.5-10v7.5c0 .827.673 1.5 1.5 1.5h9c.827 0 1.5-.673 1.5-1.5v-7.5z"/>
  </symbol>
  <symbol fill="#fff" id="save" viewBox="0 0 512 512">
  		<path d="M483.316,94.499l-77.452-77.452C394.88,6.063,380.265,0,364.719,0H128c-6.435,0-11.636,5.201-11.636,11.636
			c0,6.435,5.201,11.636,11.636,11.636h236.719c9.332,0,18.106,3.631,24.692,10.228l77.452,77.452
			c6.598,6.598,10.228,15.36,10.228,24.692v341.446c0,6.423-5.213,11.636-11.636,11.636c-6.435,0-11.636,5.201-11.636,11.636
			S459.02,512,465.455,512c19.247,0,34.909-15.663,34.909-34.909V135.645C500.364,120.099,494.301,105.484,483.316,94.499z"/>
		<path d="M302.545,46.545c-6.435,0-11.636,5.201-11.636,11.636v46.545c0,6.435,5.201,11.636,11.636,11.636
			c6.435,0,11.636-5.201,11.636-11.636V58.182C314.182,51.747,308.98,46.545,302.545,46.545z"/>
		<path d="M430.545,256H81.455c-6.435,0-11.636,5.201-11.636,11.636v186.182c0,6.435,5.201,11.636,11.636,11.636
			c6.435,0,11.636-5.201,11.636-11.636V279.273h325.818v209.455H46.545c-6.423,0-11.636-5.213-11.636-11.636V34.909
			c0-6.423,5.213-11.636,11.636-11.636h23.273v128c0,6.435,5.201,11.636,11.636,11.636h279.273c6.435,0,11.636-5.201,11.636-11.636
			V58.182c0-6.435-5.201-11.636-11.636-11.636c-6.435,0-11.636,5.201-11.636,11.636v81.455h-256v-128
			C93.091,5.201,87.889,0,81.455,0H46.545C27.299,0,11.636,15.663,11.636,34.909v442.182c0,19.247,15.663,34.909,34.909,34.909h384
			c6.435,0,11.636-5.201,11.636-11.636V267.636C442.182,261.201,436.98,256,430.545,256z"/>
		<path d="M360.727,325.818H151.273c-6.435,0-11.636,5.201-11.636,11.636c0,6.435,5.201,11.636,11.636,11.636h209.455
			c6.435,0,11.636-5.201,11.636-11.636C372.364,331.02,367.162,325.818,360.727,325.818z"/>
		<path d="M360.727,372.364H151.273c-6.435,0-11.636,5.201-11.636,11.636s5.201,11.636,11.636,11.636h209.455
			c6.435,0,11.636-5.201,11.636-11.636S367.162,372.364,360.727,372.364z"/>
		<path d="M360.727,418.909H151.273c-6.435,0-11.636,5.201-11.636,11.636s5.201,11.636,11.636,11.636h209.455
			c6.435,0,11.636-5.201,11.636-11.636S367.162,418.909,360.727,418.909z"/>

  </symbol>


</svg>